<svg xmlns="http://www.w3.org/2000/svg" xmlns:xlink="http://www.w3.org/1999/xlink" width="1080" zoomAndPan="magnify" viewBox="0 0 810 809.999993" height="1080" preserveAspectRatio="xMidYMid meet" version="1.0"><defs><clipPath id="d86c4abff1"><path d="M 52.324219 497 L 757.324219 497 L 757.324219 708 L 52.324219 708 Z M 52.324219 497 " clip-rule="nonzero"/></clipPath></defs><path fill="#000000" d="M 206.542969 486.648438 C 207.625 486.648438 208.703125 486.625 209.785156 486.570312 C 210.867188 486.515625 211.945312 486.4375 213.019531 486.332031 C 214.097656 486.226562 215.171875 486.09375 216.242188 485.933594 C 217.308594 485.773438 218.375 485.589844 219.4375 485.378906 C 220.496094 485.167969 221.550781 484.929688 222.601562 484.667969 C 223.652344 484.40625 224.691406 484.117188 225.726562 483.800781 C 226.761719 483.488281 227.789062 483.148438 228.808594 482.785156 C 229.828125 482.417969 230.835938 482.027344 231.835938 481.613281 C 232.835938 481.199219 233.824219 480.761719 234.800781 480.300781 C 235.777344 479.835938 236.746094 479.351562 237.699219 478.839844 C 238.652344 478.328125 239.59375 477.796875 240.519531 477.238281 C 241.449219 476.683594 242.363281 476.105469 243.261719 475.503906 C 244.160156 474.902344 245.046875 474.277344 245.914062 473.632812 C 246.78125 472.988281 247.636719 472.324219 248.472656 471.636719 C 249.308594 470.949219 250.125 470.242188 250.929688 469.515625 C 251.730469 468.789062 252.511719 468.042969 253.277344 467.277344 C 254.042969 466.511719 254.789062 465.726562 255.515625 464.925781 C 256.242188 464.125 256.945312 463.304688 257.632812 462.46875 C 258.320312 461.628906 258.984375 460.777344 259.628906 459.90625 C 260.273438 459.039062 260.894531 458.152344 261.496094 457.253906 C 262.097656 456.355469 262.675781 455.441406 263.234375 454.511719 C 263.789062 453.582031 264.320312 452.640625 264.832031 451.6875 C 265.339844 450.730469 265.828125 449.765625 266.289062 448.785156 C 266.753906 447.808594 267.191406 446.820312 267.605469 445.820312 C 268.019531 444.820312 268.40625 443.808594 268.773438 442.789062 C 269.136719 441.769531 269.476562 440.742188 269.789062 439.707031 C 270.105469 438.671875 270.390625 437.628906 270.65625 436.578125 C 270.917969 435.527344 271.15625 434.472656 271.367188 433.410156 C 271.578125 432.347656 271.761719 431.28125 271.921875 430.210938 C 272.078125 429.140625 272.210938 428.066406 272.316406 426.988281 C 272.421875 425.914062 272.503906 424.832031 272.554688 423.753906 C 272.609375 422.671875 272.636719 421.589844 272.636719 420.507812 C 272.636719 419.425781 272.609375 418.34375 272.554688 417.261719 C 272.503906 416.179688 272.421875 415.101562 272.316406 414.023438 C 272.210938 412.945312 272.078125 411.871094 271.921875 410.800781 C 271.761719 409.730469 271.578125 408.664062 271.367188 407.601562 C 271.15625 406.542969 270.917969 405.484375 270.65625 404.433594 C 270.390625 403.386719 270.105469 402.34375 269.789062 401.304688 C 269.476562 400.269531 269.136719 399.242188 268.773438 398.222656 C 268.40625 397.203125 268.019531 396.195312 267.605469 395.195312 C 267.191406 394.195312 266.753906 393.207031 266.289062 392.226562 C 265.828125 391.25 265.339844 390.28125 264.832031 389.328125 C 264.320312 388.371094 263.789062 387.429688 263.234375 386.503906 C 262.675781 385.574219 262.097656 384.660156 261.496094 383.757812 C 260.894531 382.859375 260.273438 381.972656 259.628906 381.105469 C 258.984375 380.234375 258.320312 379.382812 257.632812 378.546875 C 256.945312 377.710938 256.242188 376.890625 255.515625 376.085938 C 254.789062 375.285156 254.042969 374.5 253.277344 373.734375 C 252.511719 372.972656 251.730469 372.226562 250.929688 371.496094 C 250.125 370.769531 249.308594 370.0625 248.472656 369.378906 C 247.636719 368.691406 246.78125 368.023438 245.914062 367.378906 C 245.046875 366.734375 244.160156 366.113281 243.261719 365.511719 C 242.363281 364.910156 241.449219 364.332031 240.519531 363.773438 C 239.59375 363.21875 238.652344 362.683594 237.699219 362.171875 C 236.746094 361.664062 235.777344 361.175781 234.800781 360.714844 C 233.824219 360.25 232.835938 359.8125 231.835938 359.398438 C 230.835938 358.984375 229.828125 358.59375 228.808594 358.230469 C 227.789062 357.863281 226.761719 357.527344 225.726562 357.210938 C 224.691406 356.898438 223.652344 356.609375 222.601562 356.34375 C 221.550781 356.082031 220.496094 355.84375 219.4375 355.632812 C 218.375 355.421875 217.308594 355.238281 216.242188 355.078125 C 215.171875 354.921875 214.097656 354.789062 213.019531 354.683594 C 211.945312 354.574219 210.867188 354.496094 209.785156 354.441406 C 208.703125 354.390625 207.625 354.363281 206.542969 354.363281 C 205.460938 354.363281 204.378906 354.390625 203.300781 354.441406 C 202.21875 354.496094 201.140625 354.574219 200.0625 354.683594 C 198.988281 354.789062 197.914062 354.921875 196.84375 355.078125 C 195.773438 355.238281 194.707031 355.421875 193.648438 355.632812 C 192.585938 355.84375 191.53125 356.082031 190.484375 356.34375 C 189.433594 356.609375 188.390625 356.898438 187.355469 357.210938 C 186.320312 357.527344 185.292969 357.863281 184.277344 358.230469 C 183.257812 358.59375 182.25 358.984375 181.25 359.398438 C 180.25 359.8125 179.261719 360.25 178.285156 360.714844 C 177.304688 361.175781 176.339844 361.664062 175.386719 362.171875 C 174.433594 362.683594 173.492188 363.21875 172.5625 363.773438 C 171.636719 364.332031 170.722656 364.910156 169.824219 365.511719 C 168.921875 366.113281 168.039062 366.734375 167.171875 367.378906 C 166.300781 368.023438 165.449219 368.691406 164.613281 369.378906 C 163.777344 370.0625 162.957031 370.769531 162.15625 371.496094 C 161.355469 372.226562 160.570312 372.972656 159.808594 373.734375 C 159.042969 374.5 158.296875 375.285156 157.570312 376.085938 C 156.84375 376.890625 156.136719 377.710938 155.449219 378.546875 C 154.765625 379.382812 154.101562 380.234375 153.457031 381.105469 C 152.8125 381.972656 152.1875 382.859375 151.585938 383.757812 C 150.988281 384.660156 150.40625 385.574219 149.851562 386.503906 C 149.296875 387.429688 148.761719 388.371094 148.253906 389.328125 C 147.742188 390.28125 147.257812 391.25 146.792969 392.226562 C 146.332031 393.207031 145.894531 394.195312 145.480469 395.195312 C 145.066406 396.195312 144.675781 397.203125 144.3125 398.222656 C 143.949219 399.242188 143.609375 400.269531 143.292969 401.304688 C 142.980469 402.34375 142.691406 403.386719 142.429688 404.433594 C 142.167969 405.484375 141.929688 406.542969 141.71875 407.601562 C 141.507812 408.664062 141.324219 409.730469 141.164062 410.800781 C 141.003906 411.871094 140.871094 412.945312 140.765625 414.023438 C 140.660156 415.101562 140.582031 416.179688 140.527344 417.261719 C 140.476562 418.34375 140.449219 419.425781 140.449219 420.507812 C 140.449219 421.589844 140.476562 422.671875 140.527344 423.753906 C 140.582031 424.832031 140.660156 425.914062 140.765625 426.988281 C 140.871094 428.066406 141.003906 429.140625 141.164062 430.210938 C 141.324219 431.28125 141.507812 432.347656 141.71875 433.410156 C 141.929688 434.472656 142.167969 435.527344 142.429688 436.578125 C 142.691406 437.628906 142.980469 438.671875 143.292969 439.707031 C 143.609375 440.742188 143.949219 441.769531 144.3125 442.789062 C 144.675781 443.808594 145.066406 444.820312 145.480469 445.820312 C 145.894531 446.820312 146.332031 447.808594 146.792969 448.785156 C 147.257812 449.765625 147.742188 450.730469 148.253906 451.6875 C 148.761719 452.640625 149.296875 453.582031 149.851562 454.511719 C 150.40625 455.441406 150.988281 456.355469 151.585938 457.253906 C 152.1875 458.152344 152.8125 459.039062 153.457031 459.90625 C 154.101562 460.777344 154.765625 461.628906 155.449219 462.46875 C 156.136719 463.304688 156.84375 464.125 157.570312 464.925781 C 158.296875 465.726562 159.042969 466.511719 159.808594 467.277344 C 160.570312 468.042969 161.355469 468.789062 162.15625 469.515625 C 162.957031 470.242188 163.777344 470.949219 164.613281 471.636719 C 165.449219 472.324219 166.300781 472.988281 167.171875 473.632812 C 168.039062 474.277344 168.921875 474.902344 169.824219 475.503906 C 170.722656 476.105469 171.636719 476.683594 172.5625 477.238281 C 173.492188 477.796875 174.433594 478.328125 175.386719 478.839844 C 176.339844 479.351562 177.304688 479.835938 178.285156 480.300781 C 179.261719 480.761719 180.25 481.199219 181.25 481.613281 C 182.25 482.027344 183.257812 482.417969 184.277344 482.785156 C 185.292969 483.148438 186.320312 483.488281 187.355469 483.800781 C 188.390625 484.117188 189.433594 484.40625 190.484375 484.667969 C 191.53125 484.929688 192.585938 485.167969 193.648438 485.378906 C 194.707031 485.589844 195.773438 485.773438 196.84375 485.933594 C 197.914062 486.09375 198.988281 486.226562 200.0625 486.332031 C 201.140625 486.4375 202.21875 486.515625 203.300781 486.570312 C 204.378906 486.625 205.460938 486.648438 206.542969 486.648438 Z M 206.542969 376.410156 C 207.984375 376.410156 209.425781 376.480469 210.859375 376.625 C 212.296875 376.765625 213.722656 376.976562 215.136719 377.257812 C 216.554688 377.539062 217.953125 377.890625 219.332031 378.308594 C 220.714844 378.730469 222.070312 379.214844 223.402344 379.769531 C 224.738281 380.320312 226.039062 380.9375 227.3125 381.617188 C 228.585938 382.296875 229.820312 383.039062 231.023438 383.84375 C 232.222656 384.644531 233.378906 385.503906 234.496094 386.421875 C 235.609375 387.335938 236.679688 388.304688 237.699219 389.328125 C 238.71875 390.347656 239.6875 391.417969 240.601562 392.53125 C 241.519531 393.648438 242.378906 394.808594 243.179688 396.007812 C 243.980469 397.210938 244.722656 398.445312 245.402344 399.71875 C 246.082031 400.992188 246.699219 402.296875 247.25 403.632812 C 247.804688 404.964844 248.289062 406.324219 248.707031 407.707031 C 249.125 409.089844 249.476562 410.488281 249.757812 411.902344 C 250.039062 413.320312 250.25 414.746094 250.394531 416.183594 C 250.535156 417.621094 250.605469 419.0625 250.605469 420.507812 C 250.605469 421.949219 250.535156 423.390625 250.394531 424.828125 C 250.25 426.265625 250.039062 427.691406 249.757812 429.109375 C 249.476562 430.527344 249.125 431.925781 248.707031 433.308594 C 248.289062 434.6875 247.804688 436.046875 247.25 437.382812 C 246.699219 438.714844 246.082031 440.019531 245.402344 441.292969 C 244.722656 442.566406 243.980469 443.804688 243.179688 445.003906 C 242.378906 446.207031 241.519531 447.363281 240.601562 448.480469 C 239.6875 449.597656 238.71875 450.664062 237.699219 451.6875 C 236.679688 452.707031 235.609375 453.675781 234.496094 454.59375 C 233.378906 455.507812 232.222656 456.367188 231.023438 457.171875 C 229.820312 457.972656 228.585938 458.714844 227.3125 459.394531 C 226.039062 460.078125 224.738281 460.691406 223.402344 461.246094 C 222.070312 461.796875 220.714844 462.285156 219.332031 462.703125 C 217.953125 463.121094 216.554688 463.472656 215.136719 463.753906 C 213.722656 464.035156 212.296875 464.25 210.859375 464.390625 C 209.425781 464.53125 207.984375 464.601562 206.542969 464.601562 C 205.097656 464.601562 203.660156 464.53125 202.222656 464.390625 C 200.789062 464.25 199.363281 464.035156 197.945312 463.753906 C 196.53125 463.472656 195.132812 463.121094 193.75 462.703125 C 192.371094 462.285156 191.011719 461.796875 189.679688 461.246094 C 188.347656 460.691406 187.042969 460.078125 185.769531 459.394531 C 184.5 458.714844 183.261719 457.972656 182.0625 457.171875 C 180.863281 456.367188 179.703125 455.507812 178.589844 454.59375 C 177.472656 453.675781 176.40625 452.707031 175.386719 451.6875 C 174.363281 450.664062 173.398438 449.597656 172.480469 448.480469 C 171.566406 447.363281 170.707031 446.207031 169.90625 445.003906 C 169.105469 443.804688 168.363281 442.566406 167.683594 441.292969 C 167.003906 440.019531 166.386719 438.714844 165.832031 437.382812 C 165.28125 436.046875 164.796875 434.6875 164.378906 433.308594 C 163.957031 431.925781 163.609375 430.527344 163.328125 429.109375 C 163.042969 427.691406 162.832031 426.265625 162.691406 424.828125 C 162.550781 423.390625 162.480469 421.949219 162.480469 420.507812 C 162.480469 419.0625 162.550781 417.621094 162.691406 416.183594 C 162.832031 414.746094 163.042969 413.320312 163.328125 411.902344 C 163.609375 410.488281 163.957031 409.089844 164.378906 407.707031 C 164.796875 406.324219 165.28125 404.964844 165.832031 403.632812 C 166.386719 402.296875 167.003906 400.992188 167.683594 399.71875 C 168.363281 398.445312 169.105469 397.210938 169.90625 396.007812 C 170.707031 394.808594 171.566406 393.648438 172.480469 392.53125 C 173.398438 391.417969 174.363281 390.347656 175.386719 389.328125 C 176.40625 388.304688 177.472656 387.335938 178.589844 386.421875 C 179.703125 385.503906 180.863281 384.644531 182.0625 383.84375 C 183.261719 383.039062 184.5 382.296875 185.769531 381.617188 C 187.042969 380.9375 188.347656 380.320312 189.679688 379.769531 C 191.011719 379.214844 192.371094 378.730469 193.75 378.308594 C 195.132812 377.890625 196.53125 377.539062 197.945312 377.257812 C 199.363281 376.976562 200.789062 376.765625 202.222656 376.625 C 203.660156 376.480469 205.097656 376.410156 206.542969 376.410156 Z M 206.542969 376.410156 " fill-opacity="1" fill-rule="nonzero"/><path fill="#000000" d="M 603.105469 486.648438 C 604.1875 486.648438 605.265625 486.625 606.347656 486.570312 C 607.429688 486.515625 608.507812 486.4375 609.582031 486.332031 C 610.660156 486.226562 611.734375 486.09375 612.804688 485.933594 C 613.871094 485.773438 614.9375 485.589844 616 485.378906 C 617.058594 485.167969 618.113281 484.929688 619.164062 484.667969 C 620.214844 484.40625 621.253906 484.117188 622.289062 483.800781 C 623.324219 483.488281 624.351562 483.148438 625.371094 482.785156 C 626.390625 482.417969 627.398438 482.027344 628.398438 481.613281 C 629.398438 481.199219 630.386719 480.761719 631.363281 480.300781 C 632.339844 479.835938 633.308594 479.351562 634.261719 478.839844 C 635.214844 478.328125 636.15625 477.796875 637.082031 477.238281 C 638.011719 476.683594 638.925781 476.105469 639.824219 475.503906 C 640.722656 474.902344 641.609375 474.277344 642.476562 473.632812 C 643.34375 472.988281 644.199219 472.324219 645.035156 471.636719 C 645.871094 470.949219 646.6875 470.242188 647.492188 469.515625 C 648.292969 468.789062 649.074219 468.042969 649.839844 467.277344 C 650.605469 466.511719 651.351562 465.726562 652.078125 464.925781 C 652.804688 464.125 653.507812 463.304688 654.195312 462.46875 C 654.882812 461.628906 655.546875 460.777344 656.191406 459.90625 C 656.835938 459.039062 657.457031 458.152344 658.058594 457.253906 C 658.660156 456.355469 659.238281 455.441406 659.796875 454.511719 C 660.351562 453.582031 660.882812 452.640625 661.394531 451.6875 C 661.902344 450.730469 662.390625 449.765625 662.851562 448.785156 C 663.316406 447.808594 663.753906 446.820312 664.167969 445.820312 C 664.582031 444.820312 664.96875 443.808594 665.335938 442.789062 C 665.699219 441.769531 666.039062 440.742188 666.351562 439.707031 C 666.667969 438.671875 666.953125 437.628906 667.21875 436.578125 C 667.480469 435.527344 667.71875 434.472656 667.929688 433.410156 C 668.140625 432.347656 668.324219 431.28125 668.484375 430.210938 C 668.640625 429.140625 668.773438 428.066406 668.878906 426.988281 C 668.984375 425.914062 669.066406 424.832031 669.117188 423.753906 C 669.171875 422.671875 669.199219 421.589844 669.199219 420.507812 C 669.199219 419.425781 669.171875 418.34375 669.117188 417.261719 C 669.066406 416.179688 668.984375 415.101562 668.878906 414.023438 C 668.773438 412.945312 668.640625 411.871094 668.484375 410.800781 C 668.324219 409.730469 668.140625 408.664062 667.929688 407.601562 C 667.71875 406.542969 667.480469 405.484375 667.21875 404.433594 C 666.953125 403.386719 666.667969 402.34375 666.351562 401.304688 C 666.039062 400.269531 665.699219 399.242188 665.335938 398.222656 C 664.96875 397.203125 664.582031 396.195312 664.167969 395.195312 C 663.753906 394.195312 663.316406 393.207031 662.851562 392.226562 C 662.390625 391.25 661.902344 390.28125 661.394531 389.328125 C 660.882812 388.371094 660.351562 387.429688 659.796875 386.503906 C 659.238281 385.574219 658.660156 384.660156 658.058594 383.757812 C 657.457031 382.859375 656.835938 381.972656 656.191406 381.105469 C 655.546875 380.234375 654.882812 379.382812 654.195312 378.546875 C 653.507812 377.710938 652.804688 376.890625 652.078125 376.085938 C 651.351562 375.285156 650.605469 374.5 649.839844 373.734375 C 649.074219 372.972656 648.292969 372.226562 647.492188 371.496094 C 646.6875 370.769531 645.871094 370.0625 645.035156 369.378906 C 644.199219 368.691406 643.34375 368.023438 642.476562 367.378906 C 641.609375 366.734375 640.722656 366.113281 639.824219 365.511719 C 638.925781 364.910156 638.011719 364.332031 637.082031 363.773438 C 636.15625 363.21875 635.214844 362.683594 634.261719 362.171875 C 633.308594 361.664062 632.339844 361.175781 631.363281 360.714844 C 630.386719 360.25 629.398438 359.8125 628.398438 359.398438 C 627.398438 358.984375 626.390625 358.59375 625.371094 358.230469 C 624.351562 357.863281 623.324219 357.527344 622.289062 357.210938 C 621.253906 356.898438 620.214844 356.609375 619.164062 356.34375 C 618.113281 356.082031 617.058594 355.84375 616 355.632812 C 614.9375 355.421875 613.871094 355.238281 612.804688 355.078125 C 611.734375 354.921875 610.660156 354.789062 609.582031 354.683594 C 608.507812 354.574219 607.429688 354.496094 606.347656 354.441406 C 605.265625 354.390625 604.1875 354.363281 603.105469 354.363281 C 602.023438 354.363281 600.941406 354.390625 599.863281 354.441406 C 598.78125 354.496094 597.703125 354.574219 596.625 354.683594 C 595.550781 354.789062 594.476562 354.921875 593.40625 355.078125 C 592.335938 355.238281 591.269531 355.421875 590.210938 355.632812 C 589.148438 355.84375 588.09375 356.082031 587.046875 356.34375 C 585.996094 356.609375 584.953125 356.898438 583.917969 357.210938 C 582.882812 357.527344 581.855469 357.863281 580.839844 358.230469 C 579.820312 358.59375 578.8125 358.984375 577.8125 359.398438 C 576.8125 359.8125 575.824219 360.25 574.847656 360.714844 C 573.867188 361.175781 572.902344 361.664062 571.949219 362.171875 C 570.996094 362.683594 570.054688 363.21875 569.125 363.773438 C 568.199219 364.332031 567.285156 364.910156 566.386719 365.511719 C 565.484375 366.113281 564.601562 366.734375 563.734375 367.378906 C 562.863281 368.023438 562.011719 368.691406 561.175781 369.378906 C 560.339844 370.0625 559.519531 370.769531 558.71875 371.496094 C 557.917969 372.226562 557.132812 372.972656 556.371094 373.734375 C 555.605469 374.5 554.859375 375.285156 554.132812 376.085938 C 553.40625 376.890625 552.699219 377.710938 552.011719 378.546875 C 551.328125 379.382812 550.664062 380.234375 550.019531 381.105469 C 549.375 381.972656 548.75 382.859375 548.148438 383.757812 C 547.550781 384.660156 546.96875 385.574219 546.414062 386.503906 C 545.859375 387.429688 545.324219 388.371094 544.816406 389.328125 C 544.304688 390.28125 543.820312 391.25 543.355469 392.226562 C 542.894531 393.207031 542.457031 394.195312 542.042969 395.195312 C 541.628906 396.195312 541.238281 397.203125 540.875 398.222656 C 540.511719 399.242188 540.171875 400.269531 539.855469 401.304688 C 539.542969 402.34375 539.253906 403.386719 538.992188 404.433594 C 538.730469 405.484375 538.492188 406.542969 538.28125 407.601562 C 538.070312 408.664062 537.886719 409.730469 537.726562 410.800781 C 537.566406 411.871094 537.433594 412.945312 537.328125 414.023438 C 537.222656 415.101562 537.144531 416.179688 537.089844 417.261719 C 537.039062 418.34375 537.011719 419.425781 537.011719 420.507812 C 537.011719 421.589844 537.039062 422.671875 537.089844 423.753906 C 537.144531 424.832031 537.222656 425.914062 537.328125 426.988281 C 537.433594 428.066406 537.566406 429.140625 537.726562 430.210938 C 537.886719 431.28125 538.070312 432.347656 538.28125 433.410156 C 538.492188 434.472656 538.730469 435.527344 538.992188 436.578125 C 539.253906 437.628906 539.542969 438.671875 539.855469 439.707031 C 540.171875 440.742188 540.511719 441.769531 540.875 442.789062 C 541.238281 443.808594 541.628906 444.820312 542.042969 445.820312 C 542.457031 446.820312 542.894531 447.808594 543.355469 448.785156 C 543.820312 449.765625 544.304688 450.730469 544.816406 451.6875 C 545.324219 452.640625 545.859375 453.582031 546.414062 454.511719 C 546.96875 455.441406 547.546875 456.355469 548.148438 457.253906 C 548.75 458.152344 549.375 459.039062 550.019531 459.90625 C 550.660156 460.777344 551.328125 461.628906 552.011719 462.46875 C 552.699219 463.304688 553.40625 464.125 554.132812 464.925781 C 554.859375 465.726562 555.605469 466.511719 556.371094 467.277344 C 557.132812 468.042969 557.917969 468.789062 558.71875 469.515625 C 559.519531 470.242188 560.339844 470.949219 561.175781 471.636719 C 562.011719 472.324219 562.863281 472.988281 563.734375 473.632812 C 564.601562 474.277344 565.484375 474.902344 566.386719 475.503906 C 567.285156 476.105469 568.199219 476.683594 569.125 477.238281 C 570.054688 477.796875 570.996094 478.328125 571.949219 478.839844 C 572.902344 479.351562 573.867188 479.835938 574.847656 480.300781 C 575.824219 480.761719 576.8125 481.199219 577.8125 481.613281 C 578.8125 482.027344 579.820312 482.417969 580.839844 482.785156 C 581.855469 483.148438 582.882812 483.488281 583.917969 483.800781 C 584.953125 484.117188 585.996094 484.40625 587.046875 484.667969 C 588.09375 484.929688 589.148438 485.167969 590.210938 485.378906 C 591.269531 485.589844 592.335938 485.773438 593.40625 485.933594 C 594.476562 486.09375 595.550781 486.226562 596.625 486.332031 C 597.703125 486.4375 598.78125 486.515625 599.863281 486.570312 C 600.941406 486.625 602.023438 486.648438 603.105469 486.648438 Z M 603.105469 376.410156 C 604.546875 376.410156 605.988281 376.480469 607.421875 376.625 C 608.859375 376.765625 610.285156 376.976562 611.699219 377.257812 C 613.117188 377.539062 614.515625 377.890625 615.894531 378.308594 C 617.277344 378.730469 618.632812 379.214844 619.964844 379.769531 C 621.300781 380.320312 622.601562 380.9375 623.875 381.617188 C 625.148438 382.296875 626.382812 383.039062 627.585938 383.84375 C 628.785156 384.644531 629.941406 385.503906 631.058594 386.421875 C 632.171875 387.335938 633.242188 388.304688 634.261719 389.328125 C 635.28125 390.347656 636.25 391.417969 637.164062 392.53125 C 638.082031 393.648438 638.941406 394.808594 639.742188 396.007812 C 640.542969 397.210938 641.285156 398.445312 641.964844 399.71875 C 642.644531 400.992188 643.261719 402.296875 643.8125 403.632812 C 644.367188 404.964844 644.851562 406.324219 645.269531 407.707031 C 645.6875 409.089844 646.039062 410.488281 646.320312 411.902344 C 646.601562 413.320312 646.8125 414.746094 646.957031 416.183594 C 647.097656 417.621094 647.167969 419.0625 647.167969 420.507812 C 647.167969 421.949219 647.097656 423.390625 646.957031 424.828125 C 646.8125 426.265625 646.601562 427.691406 646.320312 429.109375 C 646.039062 430.527344 645.6875 431.925781 645.269531 433.308594 C 644.851562 434.6875 644.367188 436.046875 643.8125 437.382812 C 643.261719 438.714844 642.644531 440.019531 641.964844 441.292969 C 641.285156 442.566406 640.542969 443.804688 639.742188 445.003906 C 638.941406 446.207031 638.082031 447.363281 637.164062 448.480469 C 636.25 449.597656 635.28125 450.664062 634.261719 451.6875 C 633.242188 452.707031 632.171875 453.675781 631.058594 454.59375 C 629.941406 455.507812 628.785156 456.367188 627.585938 457.171875 C 626.382812 457.972656 625.148438 458.714844 623.875 459.394531 C 622.601562 460.078125 621.300781 460.691406 619.964844 461.246094 C 618.632812 461.796875 617.277344 462.285156 615.894531 462.703125 C 614.515625 463.121094 613.117188 463.472656 611.699219 463.753906 C 610.285156 464.035156 608.859375 464.25 607.421875 464.390625 C 605.988281 464.53125 604.546875 464.601562 603.105469 464.601562 C 601.660156 464.601562 600.222656 464.53125 598.785156 464.390625 C 597.351562 464.25 595.925781 464.035156 594.507812 463.753906 C 593.09375 463.472656 591.695312 463.121094 590.3125 462.703125 C 588.933594 462.285156 587.574219 461.796875 586.242188 461.246094 C 584.910156 460.691406 583.605469 460.078125 582.332031 459.394531 C 581.0625 458.714844 579.824219 457.972656 578.625 457.171875 C 577.425781 456.367188 576.265625 455.507812 575.152344 454.59375 C 574.035156 453.675781 572.96875 452.707031 571.949219 451.6875 C 570.925781 450.664062 569.960938 449.597656 569.042969 448.480469 C 568.128906 447.363281 567.269531 446.207031 566.46875 445.003906 C 565.667969 443.804688 564.925781 442.566406 564.246094 441.292969 C 563.566406 440.019531 562.949219 438.714844 562.394531 437.382812 C 561.84375 436.046875 561.359375 434.6875 560.941406 433.308594 C 560.519531 431.925781 560.171875 430.527344 559.890625 429.109375 C 559.605469 427.691406 559.394531 426.265625 559.253906 424.828125 C 559.113281 423.390625 559.042969 421.949219 559.042969 420.507812 C 559.042969 419.0625 559.113281 417.621094 559.253906 416.183594 C 559.394531 414.746094 559.605469 413.320312 559.890625 411.902344 C 560.171875 410.488281 560.519531 409.089844 560.941406 407.707031 C 561.359375 406.324219 561.84375 404.964844 562.394531 403.632812 C 562.949219 402.296875 563.566406 400.992188 564.246094 399.71875 C 564.925781 398.445312 565.667969 397.210938 566.46875 396.007812 C 567.269531 394.808594 568.128906 393.648438 569.042969 392.53125 C 569.960938 391.417969 570.925781 390.347656 571.949219 389.328125 C 572.96875 388.304688 574.035156 387.335938 575.152344 386.421875 C 576.265625 385.503906 577.425781 384.644531 578.625 383.84375 C 579.824219 383.039062 581.0625 382.296875 582.332031 381.617188 C 583.605469 380.9375 584.910156 380.320312 586.242188 379.769531 C 587.574219 379.214844 588.933594 378.730469 590.3125 378.308594 C 591.695312 377.890625 593.09375 377.539062 594.507812 377.257812 C 595.925781 376.976562 597.351562 376.765625 598.785156 376.625 C 600.222656 376.480469 601.660156 376.410156 603.105469 376.410156 Z M 603.105469 376.410156 " fill-opacity="1" fill-rule="nonzero"/><g clip-path="url(#d86c4abff1)"><path fill="#000000" d="M 746.308594 685.078125 L 716.566406 685.078125 C 719.015625 681.921875 720.902344 678.457031 722.21875 674.6875 C 723.539062 670.914062 724.226562 667.027344 724.277344 663.03125 L 724.277344 563.816406 C 724.277344 527.328125 689.6875 497.675781 647.167969 497.675781 L 559.042969 497.675781 C 520.929688 497.675781 489.203125 521.59375 483.144531 552.792969 L 437.871094 552.792969 C 437.035156 552.789062 436.207031 552.878906 435.390625 553.0625 C 434.574219 553.246094 433.789062 553.519531 433.035156 553.882812 C 432.28125 554.246094 431.578125 554.6875 430.925781 555.210938 C 430.273438 555.734375 429.6875 556.324219 429.167969 556.980469 C 428.652344 557.644531 428.21875 558.355469 427.867188 559.117188 C 427.515625 559.878906 427.253906 560.671875 427.082031 561.492188 C 426.910156 562.316406 426.832031 563.144531 426.847656 563.984375 C 426.867188 564.824219 426.980469 565.648438 427.183594 566.464844 L 456.816406 685.078125 L 352.828125 685.078125 L 382.792969 566.464844 C 383 565.648438 383.109375 564.824219 383.128906 563.984375 C 383.144531 563.144531 383.070312 562.316406 382.898438 561.492188 C 382.726562 560.671875 382.464844 559.878906 382.109375 559.117188 C 381.757812 558.355469 381.324219 557.644531 380.808594 556.980469 C 380.273438 556.304688 379.667969 555.695312 378.988281 555.160156 C 378.308594 554.621094 377.578125 554.171875 376.792969 553.808594 C 376.007812 553.445312 375.191406 553.175781 374.34375 553.003906 C 373.496094 552.832031 372.640625 552.761719 371.777344 552.792969 L 326.503906 552.792969 C 320.445312 521.59375 288.71875 497.675781 250.605469 497.675781 L 162.480469 497.675781 C 119.960938 497.675781 85.371094 527.328125 85.371094 563.816406 L 85.371094 663.03125 C 85.421875 667.027344 86.105469 670.914062 87.425781 674.6875 C 88.746094 678.457031 90.632812 681.921875 93.082031 685.078125 L 63.339844 685.078125 C 62.617188 685.078125 61.898438 685.152344 61.191406 685.292969 C 60.480469 685.433594 59.792969 685.640625 59.125 685.917969 C 58.457031 686.195312 57.820312 686.535156 57.21875 686.9375 C 56.617188 687.339844 56.0625 687.796875 55.550781 688.308594 C 55.039062 688.820312 54.582031 689.378906 54.179688 689.980469 C 53.777344 690.582031 53.4375 691.214844 53.160156 691.886719 C 52.886719 692.554688 52.675781 693.242188 52.535156 693.953125 C 52.394531 694.664062 52.324219 695.378906 52.324219 696.105469 C 52.324219 696.828125 52.394531 697.542969 52.535156 698.253906 C 52.675781 698.964844 52.886719 699.652344 53.160156 700.324219 C 53.4375 700.992188 53.777344 701.625 54.179688 702.226562 C 54.582031 702.832031 55.039062 703.386719 55.550781 703.898438 C 56.0625 704.410156 56.617188 704.867188 57.21875 705.269531 C 57.820312 705.671875 58.457031 706.011719 59.125 706.289062 C 59.792969 706.566406 60.480469 706.773438 61.191406 706.914062 C 61.898438 707.058594 62.617188 707.128906 63.339844 707.128906 L 746.308594 707.128906 C 747.03125 707.128906 747.746094 707.058594 748.457031 706.914062 C 749.167969 706.773438 749.855469 706.566406 750.523438 706.289062 C 751.191406 706.011719 751.828125 705.671875 752.429688 705.269531 C 753.027344 704.867188 753.585938 704.410156 754.097656 703.898438 C 754.609375 703.386719 755.066406 702.832031 755.46875 702.226562 C 755.867188 701.625 756.207031 700.992188 756.484375 700.324219 C 756.761719 699.652344 756.96875 698.964844 757.113281 698.253906 C 757.253906 697.542969 757.324219 696.828125 757.324219 696.105469 C 757.324219 695.378906 757.253906 694.664062 757.113281 693.953125 C 756.96875 693.242188 756.761719 692.554688 756.484375 691.886719 C 756.207031 691.214844 755.867188 690.582031 755.46875 689.980469 C 755.066406 689.378906 754.609375 688.820312 754.097656 688.308594 C 753.585938 687.796875 753.027344 687.339844 752.429688 686.9375 C 751.828125 686.535156 751.191406 686.195312 750.523438 685.917969 C 749.855469 685.640625 749.167969 685.433594 748.457031 685.292969 C 747.746094 685.152344 747.03125 685.078125 746.308594 685.078125 Z M 239.589844 685.078125 L 140.449219 685.078125 C 122.492188 685.078125 107.402344 674.9375 107.402344 663.03125 L 107.402344 563.816406 C 107.402344 539.453125 132.078125 519.722656 162.480469 519.722656 L 250.605469 519.722656 C 251.992188 519.640625 253.378906 519.613281 254.769531 519.640625 C 256.160156 519.664062 257.542969 519.742188 258.929688 519.875 C 260.3125 520.007812 261.6875 520.195312 263.054688 520.433594 C 264.425781 520.671875 265.78125 520.960938 267.128906 521.304688 C 268.476562 521.648438 269.808594 522.042969 271.125 522.488281 C 272.441406 522.933594 273.738281 523.429688 275.015625 523.972656 C 276.292969 524.519531 277.550781 525.113281 278.78125 525.753906 C 280.015625 526.398438 281.21875 527.085938 282.398438 527.820312 C 283.578125 528.554688 284.730469 529.335938 285.847656 530.15625 C 286.96875 530.980469 288.054688 531.84375 289.109375 532.753906 C 290.164062 533.660156 291.179688 534.605469 292.160156 535.589844 C 293.140625 536.574219 294.082031 537.597656 294.984375 538.65625 C 295.886719 539.710938 296.746094 540.804688 297.5625 541.925781 C 298.382812 543.050781 299.15625 544.203125 299.886719 545.386719 C 300.617188 546.570312 301.296875 547.78125 301.933594 549.015625 C 302.570312 550.253906 303.160156 551.511719 303.699219 552.792969 L 217.558594 552.792969 C 216.933594 552.773438 216.3125 552.808594 215.691406 552.898438 C 215.074219 552.984375 214.46875 553.125 213.871094 553.316406 C 213.277344 553.507812 212.703125 553.746094 212.148438 554.035156 C 211.59375 554.324219 211.070312 554.65625 210.570312 555.035156 C 210.074219 555.414062 209.613281 555.832031 209.1875 556.289062 C 208.757812 556.746094 208.375 557.234375 208.03125 557.757812 C 207.6875 558.28125 207.390625 558.828125 207.140625 559.402344 C 206.890625 559.972656 206.691406 560.5625 206.542969 561.171875 L 186.933594 640.984375 L 162.480469 640.984375 L 162.480469 607.914062 C 162.480469 607.1875 162.410156 606.472656 162.269531 605.761719 C 162.128906 605.050781 161.917969 604.363281 161.640625 603.695312 C 161.363281 603.023438 161.023438 602.390625 160.625 601.789062 C 160.222656 601.1875 159.765625 600.628906 159.253906 600.117188 C 158.742188 599.605469 158.183594 599.148438 157.585938 598.746094 C 156.984375 598.34375 156.347656 598.003906 155.679688 597.726562 C 155.011719 597.449219 154.324219 597.242188 153.613281 597.101562 C 152.902344 596.960938 152.1875 596.890625 151.464844 596.890625 C 150.742188 596.890625 150.023438 596.960938 149.316406 597.101562 C 148.605469 597.242188 147.917969 597.449219 147.25 597.726562 C 146.582031 598.003906 145.945312 598.34375 145.34375 598.746094 C 144.742188 599.148438 144.1875 599.605469 143.675781 600.117188 C 143.164062 600.628906 142.707031 601.1875 142.304688 601.789062 C 141.902344 602.390625 141.5625 603.023438 141.285156 603.695312 C 141.011719 604.363281 140.800781 605.050781 140.660156 605.761719 C 140.519531 606.472656 140.449219 607.1875 140.449219 607.914062 L 140.449219 652.007812 C 140.449219 652.730469 140.519531 653.449219 140.660156 654.160156 C 140.800781 654.867188 141.011719 655.558594 141.285156 656.226562 C 141.5625 656.894531 141.902344 657.53125 142.304688 658.132812 C 142.707031 658.734375 143.164062 659.292969 143.675781 659.804688 C 144.1875 660.316406 144.742188 660.773438 145.34375 661.175781 C 145.945312 661.578125 146.582031 661.914062 147.25 662.191406 C 147.917969 662.46875 148.605469 662.679688 149.316406 662.820312 C 150.023438 662.960938 150.742188 663.03125 151.464844 663.03125 L 270.761719 663.03125 C 270.195312 664.636719 269.511719 666.183594 268.707031 667.683594 C 267.902344 669.179688 266.984375 670.605469 265.960938 671.960938 C 264.933594 673.316406 263.8125 674.585938 262.589844 675.769531 C 261.371094 676.953125 260.066406 678.035156 258.679688 679.015625 C 257.292969 679.996094 255.835938 680.867188 254.316406 681.625 C 252.792969 682.378906 251.222656 683.015625 249.605469 683.53125 C 247.984375 684.042969 246.335938 684.433594 244.65625 684.691406 C 242.976562 684.953125 241.289062 685.082031 239.589844 685.078125 Z M 330.136719 685.078125 L 283.652344 685.078125 C 285.441406 682.71875 287.027344 680.226562 288.410156 677.605469 C 289.792969 674.984375 290.949219 672.265625 291.886719 669.453125 C 292.824219 666.640625 293.523438 663.773438 293.992188 660.84375 C 294.457031 657.917969 294.683594 654.972656 294.667969 652.007812 C 294.667969 651.285156 294.597656 650.566406 294.457031 649.859375 C 294.316406 649.148438 294.105469 648.457031 293.828125 647.789062 C 293.550781 647.121094 293.210938 646.484375 292.8125 645.882812 C 292.410156 645.28125 291.953125 644.726562 291.441406 644.214844 C 290.929688 643.703125 290.371094 643.246094 289.773438 642.84375 C 289.171875 642.441406 288.535156 642.101562 287.867188 641.824219 C 287.199219 641.546875 286.511719 641.335938 285.800781 641.195312 C 285.089844 641.054688 284.375 640.984375 283.652344 640.984375 L 209.625 640.984375 L 226.148438 574.839844 L 357.675781 574.839844 Z M 479.507812 685.078125 L 451.96875 574.839844 L 583.496094 574.839844 L 600.019531 640.984375 L 525.996094 640.984375 C 525.273438 640.984375 524.554688 641.054688 523.847656 641.195312 C 523.136719 641.335938 522.449219 641.546875 521.78125 641.824219 C 521.113281 642.101562 520.476562 642.441406 519.875 642.84375 C 519.273438 643.246094 518.71875 643.703125 518.207031 644.214844 C 517.695312 644.726562 517.238281 645.28125 516.835938 645.882812 C 516.433594 646.484375 516.09375 647.121094 515.816406 647.789062 C 515.542969 648.457031 515.332031 649.148438 515.191406 649.859375 C 515.050781 650.566406 514.980469 651.285156 514.980469 652.007812 C 514.964844 654.972656 515.1875 657.917969 515.65625 660.84375 C 516.121094 663.773438 516.824219 666.640625 517.761719 669.453125 C 518.695312 672.265625 519.855469 674.984375 521.238281 677.605469 C 522.621094 680.226562 524.207031 682.71875 525.996094 685.078125 Z M 702.246094 663.03125 C 702.246094 674.9375 687.152344 685.078125 669.199219 685.078125 L 570.058594 685.078125 C 568.359375 685.082031 566.667969 684.953125 564.992188 684.691406 C 563.3125 684.433594 561.664062 684.042969 560.042969 683.53125 C 558.421875 683.015625 556.851562 682.378906 555.332031 681.625 C 553.808594 680.867188 552.355469 679.996094 550.96875 679.015625 C 549.582031 678.035156 548.277344 676.953125 547.054688 675.769531 C 545.835938 674.585938 544.710938 673.320312 543.6875 671.960938 C 542.660156 670.605469 541.746094 669.179688 540.941406 667.683594 C 540.136719 666.183594 539.449219 664.636719 538.882812 663.03125 L 658.183594 663.03125 C 658.90625 663.03125 659.621094 662.960938 660.332031 662.820312 C 661.042969 662.679688 661.730469 662.46875 662.398438 662.191406 C 663.066406 661.914062 663.703125 661.578125 664.304688 661.175781 C 664.902344 660.773438 665.460938 660.316406 665.972656 659.804688 C 666.484375 659.292969 666.941406 658.734375 667.34375 658.132812 C 667.742188 657.53125 668.082031 656.894531 668.359375 656.226562 C 668.636719 655.558594 668.84375 654.867188 668.988281 654.160156 C 669.128906 653.449219 669.199219 652.730469 669.199219 652.007812 L 669.199219 607.914062 C 669.199219 607.1875 669.128906 606.472656 668.988281 605.761719 C 668.84375 605.050781 668.636719 604.363281 668.359375 603.695312 C 668.082031 603.023438 667.742188 602.390625 667.34375 601.789062 C 666.941406 601.1875 666.484375 600.628906 665.972656 600.117188 C 665.460938 599.605469 664.902344 599.148438 664.304688 598.746094 C 663.703125 598.34375 663.066406 598.003906 662.398438 597.726562 C 661.730469 597.449219 661.042969 597.242188 660.332031 597.101562 C 659.621094 596.960938 658.90625 596.890625 658.183594 596.890625 C 657.460938 596.890625 656.742188 596.960938 656.035156 597.101562 C 655.324219 597.242188 654.636719 597.449219 653.96875 597.726562 C 653.300781 598.003906 652.664062 598.34375 652.0625 598.746094 C 651.460938 599.148438 650.90625 599.605469 650.394531 600.117188 C 649.882812 600.628906 649.425781 601.1875 649.023438 601.789062 C 648.621094 602.390625 648.28125 603.023438 648.003906 603.695312 C 647.730469 604.363281 647.519531 605.050781 647.378906 605.761719 C 647.238281 606.472656 647.167969 607.1875 647.167969 607.914062 L 647.167969 640.984375 L 622.710938 640.984375 L 603.105469 561.171875 C 602.957031 560.5625 602.753906 559.972656 602.503906 559.402344 C 602.253906 558.828125 601.957031 558.28125 601.617188 557.757812 C 601.273438 557.234375 600.886719 556.746094 600.460938 556.289062 C 600.035156 555.832031 599.574219 555.414062 599.074219 555.035156 C 598.578125 554.65625 598.050781 554.324219 597.496094 554.035156 C 596.945312 553.746094 596.371094 553.507812 595.773438 553.316406 C 595.179688 553.125 594.574219 552.984375 593.953125 552.898438 C 593.335938 552.808594 592.714844 552.773438 592.089844 552.792969 L 505.945312 552.792969 C 506.488281 551.511719 507.074219 550.253906 507.710938 549.015625 C 508.347656 547.78125 509.03125 546.570312 509.761719 545.386719 C 510.492188 544.203125 511.265625 543.050781 512.082031 541.925781 C 512.902344 540.804688 513.761719 539.710938 514.664062 538.65625 C 515.566406 537.597656 516.507812 536.574219 517.488281 535.589844 C 518.46875 534.605469 519.484375 533.660156 520.539062 532.753906 C 521.589844 531.84375 522.679688 530.980469 523.796875 530.15625 C 524.917969 529.335938 526.066406 528.554688 527.246094 527.820312 C 528.425781 527.085938 529.632812 526.398438 530.867188 525.753906 C 532.097656 525.113281 533.351562 524.519531 534.632812 523.972656 C 535.910156 523.429688 537.207031 522.933594 538.523438 522.488281 C 539.839844 522.042969 541.171875 521.648438 542.519531 521.304688 C 543.863281 520.960938 545.222656 520.671875 546.589844 520.433594 C 547.960938 520.195312 549.335938 520.007812 550.71875 519.875 C 552.101562 519.742188 553.488281 519.664062 554.878906 519.640625 C 556.265625 519.613281 557.65625 519.640625 559.042969 519.722656 L 647.167969 519.722656 C 677.570312 519.722656 702.246094 539.453125 702.246094 563.816406 Z M 702.246094 663.03125 " fill-opacity="1" fill-rule="nonzero"/></g><path fill="#000000" d="M 553.644531 233.101562 C 553.644531 231.476562 553.605469 229.855469 553.523438 228.230469 C 553.445312 226.609375 553.328125 224.992188 553.167969 223.375 C 553.007812 221.761719 552.808594 220.148438 552.570312 218.542969 C 552.332031 216.9375 552.054688 215.335938 551.738281 213.746094 C 551.421875 212.152344 551.066406 210.570312 550.671875 208.992188 C 550.277344 207.417969 549.847656 205.855469 549.375 204.300781 C 548.90625 202.746094 548.394531 201.203125 547.847656 199.675781 C 547.300781 198.148438 546.71875 196.632812 546.097656 195.132812 C 545.476562 193.632812 544.820312 192.148438 544.125 190.679688 C 543.433594 189.214844 542.703125 187.761719 541.9375 186.332031 C 541.171875 184.898438 540.375 183.488281 539.539062 182.09375 C 538.707031 180.703125 537.835938 179.328125 536.9375 177.980469 C 536.035156 176.628906 535.101562 175.300781 534.132812 174 C 533.167969 172.695312 532.171875 171.414062 531.140625 170.160156 C 530.113281 168.902344 529.050781 167.675781 527.960938 166.472656 C 526.871094 165.269531 525.753906 164.09375 524.605469 162.945312 C 523.460938 161.796875 522.285156 160.675781 521.082031 159.585938 C 519.878906 158.496094 518.652344 157.4375 517.398438 156.40625 C 516.144531 155.375 514.863281 154.378906 513.5625 153.410156 C 512.257812 152.441406 510.933594 151.507812 509.582031 150.605469 C 508.234375 149.703125 506.863281 148.835938 505.472656 148 C 504.082031 147.167969 502.667969 146.367188 501.238281 145.601562 C 499.808594 144.835938 498.359375 144.105469 496.890625 143.410156 C 495.425781 142.71875 493.941406 142.058594 492.445312 141.4375 C 490.945312 140.816406 489.429688 140.230469 487.902344 139.683594 C 486.375 139.136719 484.835938 138.628906 483.28125 138.15625 C 481.730469 137.6875 480.167969 137.253906 478.59375 136.859375 C 477.019531 136.464844 475.4375 136.109375 473.84375 135.792969 C 472.253906 135.476562 470.65625 135.199219 469.050781 134.960938 C 467.445312 134.722656 465.835938 134.523438 464.222656 134.363281 C 462.605469 134.203125 460.988281 134.085938 459.367188 134.003906 C 457.75 133.925781 456.125 133.886719 454.503906 133.886719 C 443.824219 133.882812 433.433594 135.613281 423.328125 139.066406 C 422.074219 137.832031 420.78125 136.636719 419.460938 135.472656 C 418.140625 134.308594 416.789062 133.179688 415.410156 132.085938 C 414.027344 130.992188 412.617188 129.9375 411.179688 128.921875 C 409.742188 127.90625 408.28125 126.925781 406.789062 125.988281 C 405.300781 125.046875 403.789062 124.148438 402.25 123.292969 C 400.714844 122.433594 399.152344 121.617188 397.574219 120.839844 C 395.992188 120.066406 394.390625 119.332031 392.773438 118.644531 C 391.152344 117.953125 389.515625 117.308594 387.863281 116.703125 C 386.207031 116.101562 384.539062 115.542969 382.855469 115.027344 C 381.171875 114.515625 379.472656 114.046875 377.765625 113.625 C 376.058594 113.199219 374.339844 112.824219 372.609375 112.492188 C 370.878906 112.160156 369.144531 111.875 367.398438 111.632812 C 365.65625 111.394531 363.90625 111.203125 362.152344 111.058594 C 360.398438 110.910156 358.640625 110.8125 356.882812 110.761719 C 355.121094 110.707031 353.363281 110.703125 351.601562 110.742188 C 349.84375 110.785156 348.085938 110.875 346.328125 111.007812 C 344.574219 111.144531 342.824219 111.328125 341.078125 111.554688 C 339.332031 111.785156 337.59375 112.058594 335.863281 112.378906 C 334.132812 112.703125 332.410156 113.070312 330.699219 113.480469 C 328.988281 113.894531 327.289062 114.351562 325.601562 114.855469 C 323.914062 115.359375 322.242188 115.90625 320.585938 116.5 C 318.929688 117.09375 317.289062 117.730469 315.664062 118.410156 C 314.039062 119.089844 312.433594 119.8125 310.847656 120.578125 C 309.265625 121.34375 307.699219 122.152344 306.15625 123 C 304.617188 123.851562 303.097656 124.738281 301.601562 125.671875 C 300.105469 126.601562 298.636719 127.570312 297.195312 128.578125 C 295.75 129.585938 294.335938 130.632812 292.945312 131.714844 C 291.558594 132.800781 290.203125 133.921875 288.871094 135.078125 C 287.542969 136.234375 286.25 137.421875 284.984375 138.648438 C 283.71875 139.875 282.488281 141.132812 281.289062 142.421875 C 280.09375 143.714844 278.929688 145.035156 277.800781 146.390625 C 276.675781 147.742188 275.582031 149.125 274.53125 150.535156 C 273.476562 151.945312 272.460938 153.386719 271.484375 154.851562 C 270.507812 156.316406 269.566406 157.804688 268.671875 159.320312 C 267.773438 160.835938 266.914062 162.375 266.097656 163.9375 C 265.28125 165.496094 264.507812 167.078125 263.777344 168.679688 C 263.046875 170.28125 262.355469 171.902344 261.710938 173.542969 C 261.066406 175.179688 260.464844 176.835938 259.90625 178.507812 C 259.347656 180.179688 258.835938 181.863281 258.367188 183.5625 C 257.898438 185.257812 257.476562 186.96875 257.101562 188.691406 C 256.722656 190.410156 256.394531 192.140625 256.109375 193.878906 C 255.824219 195.617188 255.585938 197.363281 255.394531 199.113281 C 255.199219 200.863281 255.054688 202.621094 254.957031 204.378906 C 254.859375 206.136719 254.808594 207.898438 254.800781 209.660156 C 254.796875 211.421875 254.839844 213.183594 254.929688 214.941406 C 255.015625 216.699219 255.152344 218.457031 255.335938 220.210938 C 255.515625 221.960938 255.746094 223.707031 256.023438 225.449219 C 256.296875 227.1875 256.617188 228.917969 256.984375 230.640625 C 257.351562 232.363281 257.765625 234.078125 258.226562 235.777344 C 258.683594 237.476562 259.1875 239.164062 259.734375 240.839844 C 260.285156 242.515625 260.875 244.171875 261.511719 245.816406 C 262.148438 247.457031 262.828125 249.082031 263.554688 250.6875 C 264.277344 252.292969 265.042969 253.878906 265.847656 255.445312 C 266.65625 257.011719 267.503906 258.554688 268.394531 260.074219 C 269.285156 261.59375 270.214844 263.089844 271.183594 264.558594 C 272.152344 266.03125 273.160156 267.472656 274.207031 268.890625 C 275.253906 270.308594 276.335938 271.695312 277.457031 273.054688 C 278.574219 274.414062 279.730469 275.742188 280.921875 277.039062 C 282.113281 278.335938 283.335938 279.601562 284.59375 280.835938 C 285.851562 282.066406 287.144531 283.265625 288.464844 284.429688 C 289.785156 285.59375 291.136719 286.71875 292.519531 287.8125 C 293.902344 288.902344 295.3125 289.957031 296.75 290.972656 C 298.1875 291.988281 299.652344 292.964844 301.140625 293.90625 C 302.632812 294.84375 304.144531 295.742188 305.683594 296.597656 L 300.835938 330.773438 C 300.65625 331.820312 300.628906 332.875 300.753906 333.933594 C 300.882812 334.988281 301.152344 336.007812 301.574219 336.984375 C 301.996094 337.964844 302.542969 338.863281 303.226562 339.679688 C 303.90625 340.5 304.6875 341.203125 305.574219 341.796875 C 307.4375 343.050781 309.496094 343.675781 311.742188 343.671875 C 313.703125 343.683594 315.539062 343.207031 317.25 342.238281 L 376.074219 308.503906 C 379.808594 307.699219 383.480469 306.671875 387.089844 305.417969 C 390.359375 308.542969 393.832031 311.429688 397.5 314.078125 C 401.164062 316.726562 404.996094 319.113281 408.988281 321.234375 C 412.984375 323.359375 417.105469 325.203125 421.347656 326.761719 C 425.59375 328.320312 429.925781 329.585938 434.34375 330.550781 L 492.949219 363.953125 C 494.65625 364.921875 496.492188 365.402344 498.457031 365.386719 C 500.703125 365.390625 502.761719 364.769531 504.625 363.511719 C 505.507812 362.921875 506.292969 362.214844 506.972656 361.398438 C 507.652344 360.578125 508.203125 359.679688 508.625 358.703125 C 509.042969 357.722656 509.316406 356.707031 509.441406 355.648438 C 509.566406 354.59375 509.542969 353.539062 509.363281 352.488281 L 504.515625 318.316406 C 506.367188 317.234375 508.179688 316.09375 509.957031 314.890625 C 511.734375 313.691406 513.46875 312.4375 515.164062 311.125 C 516.859375 309.8125 518.511719 308.445312 520.121094 307.023438 C 521.726562 305.605469 523.285156 304.132812 524.796875 302.613281 C 526.308594 301.09375 527.769531 299.523438 529.179688 297.910156 C 530.589844 296.292969 531.945312 294.632812 533.25 292.929688 C 534.550781 291.226562 535.796875 289.480469 536.988281 287.695312 C 538.175781 285.910156 539.304688 284.089844 540.378906 282.230469 C 541.449219 280.375 542.457031 278.480469 543.40625 276.558594 C 544.355469 274.632812 545.242188 272.683594 546.0625 270.699219 C 546.886719 268.71875 547.644531 266.714844 548.335938 264.683594 C 549.027344 262.652344 549.652344 260.601562 550.210938 258.53125 C 550.773438 256.460938 551.261719 254.375 551.6875 252.269531 C 552.109375 250.167969 552.464844 248.054688 552.753906 245.925781 C 553.039062 243.800781 553.257812 241.667969 553.40625 239.527344 C 553.554688 237.386719 553.636719 235.246094 553.644531 233.101562 Z M 369.683594 286.898438 C 368.492188 287.152344 367.355469 287.558594 366.269531 288.109375 L 325.402344 311.589844 L 327.714844 292.078125 C 327.828125 290.953125 327.769531 289.839844 327.539062 288.734375 C 327.308594 287.625 326.917969 286.582031 326.363281 285.59375 C 325.8125 284.609375 325.125 283.726562 324.304688 282.953125 C 323.480469 282.179688 322.5625 281.546875 321.546875 281.054688 C 320.183594 280.398438 318.839844 279.703125 317.515625 278.96875 C 316.195312 278.234375 314.894531 277.460938 313.617188 276.648438 C 312.339844 275.835938 311.089844 274.988281 309.859375 274.101562 C 308.632812 273.21875 307.433594 272.296875 306.261719 271.339844 C 305.085938 270.382812 303.945312 269.394531 302.828125 268.371094 C 301.714844 267.347656 300.628906 266.292969 299.578125 265.203125 C 298.523438 264.117188 297.503906 263 296.519531 261.851562 C 295.53125 260.707031 294.578125 259.53125 293.660156 258.328125 C 292.742188 257.125 291.859375 255.894531 291.015625 254.636719 C 290.171875 253.382812 289.363281 252.105469 288.59375 250.800781 C 287.820312 249.496094 287.089844 248.171875 286.398438 246.828125 C 285.707031 245.480469 285.054688 244.117188 284.441406 242.730469 C 283.828125 241.347656 283.257812 239.945312 282.726562 238.527344 C 282.199219 237.109375 281.710938 235.675781 281.265625 234.230469 C 280.820312 232.78125 280.417969 231.324219 280.058594 229.855469 C 279.699219 228.382812 279.382812 226.902344 279.109375 225.414062 C 278.835938 223.925781 278.609375 222.429688 278.421875 220.925781 C 278.238281 219.425781 278.097656 217.917969 278.003906 216.40625 C 277.90625 214.894531 277.855469 213.382812 277.847656 211.867188 C 277.839844 210.355469 277.878906 208.84375 277.960938 207.332031 C 278.042969 205.820312 278.167969 204.3125 278.339844 202.804688 C 278.507812 201.300781 278.722656 199.804688 278.980469 198.3125 C 279.242188 196.820312 279.542969 195.339844 279.890625 193.863281 C 280.234375 192.390625 280.625 190.929688 281.054688 189.476562 C 281.488281 188.027344 281.960938 186.589844 282.476562 185.167969 C 282.996094 183.742188 283.550781 182.335938 284.152344 180.945312 C 284.75 179.554688 285.390625 178.183594 286.070312 176.832031 C 286.75 175.480469 287.46875 174.148438 288.226562 172.839844 C 288.984375 171.527344 289.78125 170.242188 290.613281 168.976562 C 291.449219 167.714844 292.316406 166.476562 293.226562 165.265625 C 294.132812 164.054688 295.074219 162.867188 296.046875 161.710938 C 297.023438 160.554688 298.035156 159.429688 299.078125 158.332031 C 300.121094 157.234375 301.191406 156.167969 302.296875 155.136719 C 303.402344 154.101562 304.539062 153.101562 305.703125 152.132812 C 306.867188 151.167969 308.058594 150.234375 309.277344 149.339844 C 310.496094 148.441406 311.738281 147.582031 313.007812 146.757812 C 314.277344 145.933594 315.570312 145.148438 316.886719 144.402344 C 318.203125 143.652344 319.539062 142.945312 320.894531 142.277344 C 322.253906 141.609375 323.628906 140.980469 325.023438 140.390625 C 326.417969 139.804688 327.828125 139.257812 329.253906 138.753906 C 330.679688 138.25 332.117188 137.785156 333.574219 137.367188 C 335.027344 136.945312 336.492188 136.570312 337.964844 136.238281 C 339.441406 135.902344 340.925781 135.613281 342.417969 135.367188 C 343.910156 135.121094 345.410156 134.917969 346.914062 134.761719 C 348.417969 134.601562 349.925781 134.488281 351.4375 134.421875 C 352.949219 134.351562 354.460938 134.328125 355.972656 134.347656 C 357.488281 134.367188 358.996094 134.429688 360.507812 134.539062 C 362.015625 134.648438 363.519531 134.800781 365.019531 135 C 366.519531 135.199219 368.011719 135.4375 369.5 135.726562 C 370.984375 136.011719 372.460938 136.339844 373.925781 136.710938 C 375.390625 137.085938 376.847656 137.5 378.289062 137.957031 C 379.730469 138.414062 381.15625 138.914062 382.570312 139.457031 C 383.984375 140 385.378906 140.582031 386.757812 141.207031 C 388.132812 141.832031 389.492188 142.496094 390.832031 143.199219 C 392.171875 143.90625 393.488281 144.648438 394.785156 145.429688 C 396.078125 146.210938 397.351562 147.03125 398.597656 147.886719 C 399.84375 148.746094 401.066406 149.636719 402.261719 150.566406 C 403.457031 151.496094 404.621094 152.457031 405.757812 153.457031 C 406.898438 154.453125 408.003906 155.484375 409.082031 156.546875 C 410.160156 157.609375 411.207031 158.703125 412.21875 159.828125 C 413.230469 160.953125 414.210938 162.105469 415.15625 163.285156 C 416.101562 164.46875 417.011719 165.675781 417.886719 166.914062 C 418.761719 168.148438 419.597656 169.410156 420.398438 170.695312 C 421.199219 171.976562 421.960938 173.285156 422.683594 174.617188 C 423.40625 175.945312 424.089844 177.296875 424.734375 178.664062 C 425.378906 180.035156 425.980469 181.421875 426.542969 182.828125 C 427.105469 184.234375 427.625 185.65625 428.105469 187.089844 C 428.582031 188.527344 429.019531 189.976562 429.410156 191.4375 C 429.804688 192.898438 430.15625 194.371094 430.460938 195.855469 C 430.769531 197.335938 431.03125 198.828125 431.25 200.324219 C 431.46875 201.824219 431.644531 203.328125 431.777344 204.835938 C 431.90625 206.34375 431.992188 207.855469 432.035156 209.367188 C 432.078125 210.878906 432.074219 212.394531 432.027344 213.90625 C 431.980469 215.421875 431.890625 216.929688 431.753906 218.4375 C 431.617188 219.945312 431.4375 221.449219 431.214844 222.945312 C 430.988281 224.441406 430.722656 225.933594 430.410156 227.414062 C 430.097656 228.894531 429.742188 230.367188 429.34375 231.828125 C 428.945312 233.289062 428.503906 234.734375 428.019531 236.167969 C 427.539062 237.605469 427.011719 239.023438 426.445312 240.425781 C 425.878906 241.832031 425.269531 243.214844 424.621094 244.585938 C 423.972656 245.953125 423.285156 247.300781 422.558594 248.625 C 421.832031 249.953125 421.0625 251.257812 420.261719 252.539062 C 419.457031 253.824219 418.613281 255.082031 417.734375 256.3125 C 416.855469 257.546875 415.941406 258.75 414.992188 259.929688 C 414.042969 261.109375 413.0625 262.257812 412.042969 263.378906 C 411.027344 264.5 409.980469 265.589844 408.898438 266.648438 C 407.816406 267.707031 406.707031 268.734375 405.5625 269.730469 C 404.421875 270.722656 403.253906 271.679688 402.054688 272.605469 C 400.855469 273.53125 399.632812 274.417969 398.382812 275.273438 C 397.132812 276.125 395.859375 276.941406 394.5625 277.71875 C 393.261719 278.496094 391.945312 279.234375 390.601562 279.933594 C 389.261719 280.632812 387.898438 281.292969 386.519531 281.914062 C 385.140625 282.53125 383.742188 283.113281 382.328125 283.648438 C 380.914062 284.1875 379.484375 284.683594 378.039062 285.136719 C 376.597656 285.589844 375.140625 286 373.675781 286.367188 C 372.207031 286.734375 370.730469 287.058594 369.242188 287.339844 Z M 487.882812 302.660156 C 486.863281 303.152344 485.945312 303.785156 485.121094 304.558594 C 484.300781 305.335938 483.613281 306.214844 483.0625 307.199219 C 482.511719 308.1875 482.121094 309.234375 481.890625 310.339844 C 481.660156 311.445312 481.601562 312.5625 481.710938 313.683594 L 484.464844 333.199219 L 443.597656 310.269531 C 442.511719 309.714844 441.375 309.3125 440.183594 309.054688 C 434.4375 307.929688 428.898438 306.167969 423.558594 303.765625 C 418.21875 301.367188 413.222656 298.386719 408.570312 294.835938 C 409.941406 293.960938 411.289062 293.054688 412.617188 292.113281 C 413.941406 291.171875 415.246094 290.199219 416.523438 289.195312 C 417.800781 288.191406 419.054688 287.15625 420.285156 286.089844 C 421.511719 285.023438 422.710938 283.925781 423.886719 282.800781 C 425.058594 281.675781 426.207031 280.519531 427.324219 279.339844 C 428.441406 278.15625 429.527344 276.949219 430.585938 275.714844 C 431.644531 274.476562 432.671875 273.21875 433.667969 271.929688 C 434.664062 270.644531 435.625 269.335938 436.558594 268 C 437.488281 266.667969 438.386719 265.3125 439.253906 263.933594 C 440.117188 262.558594 440.949219 261.160156 441.742188 259.742188 C 442.539062 258.320312 443.300781 256.886719 444.027344 255.429688 C 444.75 253.972656 445.441406 252.5 446.09375 251.011719 C 446.746094 249.519531 447.363281 248.015625 447.941406 246.496094 C 448.519531 244.972656 449.0625 243.441406 449.566406 241.894531 C 450.070312 240.347656 450.535156 238.789062 450.960938 237.21875 C 451.390625 235.648438 451.777344 234.070312 452.128906 232.480469 C 452.476562 230.890625 452.785156 229.292969 453.058594 227.691406 C 453.328125 226.085938 453.558594 224.476562 453.75 222.859375 C 453.945312 221.246094 454.09375 219.625 454.207031 218.003906 C 454.320312 216.378906 454.390625 214.753906 454.425781 213.128906 C 454.457031 211.5 454.449219 209.875 454.402344 208.25 C 454.355469 206.621094 454.265625 205 454.140625 203.375 C 454.011719 201.753906 453.84375 200.136719 453.636719 198.523438 C 453.429688 196.910156 453.183594 195.300781 452.898438 193.699219 C 452.613281 192.097656 452.285156 190.503906 451.921875 188.917969 C 451.558594 187.332031 451.15625 185.757812 450.710938 184.191406 C 450.269531 182.625 449.789062 181.070312 449.273438 179.53125 C 448.753906 177.988281 448.199219 176.460938 447.605469 174.945312 C 447.011719 173.429688 446.382812 171.929688 445.714844 170.445312 C 445.046875 168.964844 444.34375 167.496094 443.605469 166.046875 C 442.867188 164.597656 442.09375 163.167969 441.28125 161.757812 C 440.472656 160.347656 439.628906 158.957031 438.75 157.585938 C 443.945312 156.476562 449.195312 155.925781 454.503906 155.933594 C 456.664062 155.941406 458.824219 156.042969 460.976562 156.234375 C 463.128906 156.425781 465.269531 156.707031 467.398438 157.078125 C 469.53125 157.449219 471.640625 157.910156 473.730469 158.457031 C 475.820312 159.003906 477.886719 159.640625 479.921875 160.363281 C 481.960938 161.085938 483.964844 161.894531 485.933594 162.785156 C 487.902344 163.675781 489.832031 164.648438 491.71875 165.699219 C 493.609375 166.753906 495.449219 167.886719 497.242188 169.09375 C 499.035156 170.300781 500.773438 171.582031 502.457031 172.9375 C 504.144531 174.292969 505.769531 175.714844 507.335938 177.207031 C 508.902344 178.699219 510.402344 180.253906 511.835938 181.871094 C 513.269531 183.488281 514.636719 185.164062 515.929688 186.898438 C 517.222656 188.628906 518.441406 190.414062 519.585938 192.25 C 520.730469 194.082031 521.796875 195.964844 522.785156 197.886719 C 523.769531 199.8125 524.671875 201.777344 525.496094 203.777344 C 526.316406 205.777344 527.050781 207.808594 527.703125 209.871094 C 528.355469 211.9375 528.917969 214.023438 529.390625 216.132812 C 529.867188 218.242188 530.253906 220.371094 530.550781 222.511719 C 530.847656 224.65625 531.050781 226.804688 531.167969 228.964844 C 531.285156 231.125 531.308594 233.289062 531.242188 235.449219 C 531.175781 237.613281 531.019531 239.765625 530.773438 241.917969 C 530.527344 244.066406 530.191406 246.199219 529.765625 248.320312 C 529.335938 250.441406 528.824219 252.539062 528.21875 254.617188 C 527.617188 256.695312 526.929688 258.742188 526.152344 260.761719 C 525.378906 262.78125 524.519531 264.765625 523.578125 266.714844 C 522.636719 268.660156 521.617188 270.566406 520.515625 272.425781 C 519.414062 274.285156 518.234375 276.097656 516.980469 277.859375 C 515.726562 279.621094 514.402344 281.328125 513.003906 282.980469 C 511.609375 284.628906 510.144531 286.21875 508.613281 287.746094 C 507.082031 289.273438 505.488281 290.734375 503.835938 292.128906 C 502.183594 293.519531 500.472656 294.84375 498.710938 296.09375 C 496.945312 297.339844 495.132812 298.515625 493.269531 299.613281 C 491.40625 300.707031 489.5 301.726562 487.550781 302.660156 Z M 487.882812 302.660156 " fill-opacity="1" fill-rule="nonzero"/><path fill="#000000" d="M 338.839844 211.054688 C 338.839844 211.59375 338.8125 212.132812 338.761719 212.671875 C 338.707031 213.210938 338.628906 213.746094 338.523438 214.277344 C 338.417969 214.808594 338.285156 215.335938 338.128906 215.851562 C 337.972656 216.371094 337.789062 216.878906 337.582031 217.378906 C 337.375 217.882812 337.144531 218.371094 336.890625 218.847656 C 336.632812 219.324219 336.355469 219.789062 336.054688 220.238281 C 335.753906 220.691406 335.433594 221.125 335.089844 221.542969 C 334.746094 221.960938 334.382812 222.363281 334 222.746094 C 333.617188 223.128906 333.21875 223.492188 332.800781 223.835938 C 332.378906 224.179688 331.945312 224.5 331.496094 224.800781 C 331.046875 225.101562 330.582031 225.382812 330.105469 225.636719 C 329.628906 225.890625 329.140625 226.121094 328.640625 226.328125 C 328.140625 226.539062 327.628906 226.71875 327.113281 226.875 C 326.59375 227.035156 326.070312 227.164062 325.539062 227.269531 C 325.007812 227.375 324.476562 227.457031 323.9375 227.507812 C 323.398438 227.5625 322.859375 227.589844 322.316406 227.589844 C 321.773438 227.589844 321.234375 227.5625 320.695312 227.507812 C 320.160156 227.457031 319.625 227.375 319.09375 227.269531 C 318.5625 227.164062 318.039062 227.035156 317.519531 226.875 C 317.003906 226.71875 316.492188 226.539062 315.992188 226.328125 C 315.492188 226.121094 315.003906 225.890625 314.527344 225.636719 C 314.050781 225.382812 313.585938 225.101562 313.136719 224.800781 C 312.6875 224.5 312.253906 224.179688 311.835938 223.835938 C 311.414062 223.492188 311.015625 223.128906 310.632812 222.746094 C 310.25 222.363281 309.886719 221.960938 309.542969 221.542969 C 309.199219 221.125 308.878906 220.691406 308.578125 220.238281 C 308.277344 219.789062 308 219.324219 307.742188 218.847656 C 307.488281 218.371094 307.257812 217.882812 307.050781 217.378906 C 306.84375 216.878906 306.660156 216.371094 306.503906 215.851562 C 306.347656 215.335938 306.214844 214.808594 306.109375 214.277344 C 306.003906 213.746094 305.925781 213.210938 305.871094 212.671875 C 305.820312 212.132812 305.792969 211.59375 305.792969 211.054688 C 305.792969 210.511719 305.820312 209.972656 305.871094 209.433594 C 305.925781 208.894531 306.003906 208.359375 306.109375 207.828125 C 306.214844 207.296875 306.347656 206.769531 306.503906 206.253906 C 306.660156 205.734375 306.84375 205.226562 307.050781 204.726562 C 307.257812 204.222656 307.488281 203.734375 307.742188 203.257812 C 308 202.78125 308.277344 202.316406 308.578125 201.867188 C 308.878906 201.414062 309.199219 200.980469 309.542969 200.5625 C 309.886719 200.144531 310.25 199.742188 310.632812 199.359375 C 311.015625 198.976562 311.414062 198.613281 311.835938 198.269531 C 312.253906 197.925781 312.6875 197.605469 313.136719 197.304688 C 313.585938 197.003906 314.050781 196.726562 314.527344 196.46875 C 315.003906 196.214844 315.492188 195.984375 315.992188 195.777344 C 316.492188 195.570312 317.003906 195.386719 317.519531 195.230469 C 318.039062 195.070312 318.5625 194.941406 319.09375 194.835938 C 319.625 194.730469 320.160156 194.648438 320.695312 194.597656 C 321.234375 194.542969 321.773438 194.515625 322.316406 194.515625 C 322.859375 194.515625 323.398438 194.542969 323.9375 194.597656 C 324.476562 194.648438 325.007812 194.730469 325.539062 194.835938 C 326.070312 194.941406 326.59375 195.070312 327.113281 195.230469 C 327.628906 195.386719 328.140625 195.570312 328.640625 195.777344 C 329.140625 195.984375 329.628906 196.214844 330.105469 196.46875 C 330.582031 196.726562 331.046875 197.003906 331.496094 197.304688 C 331.945312 197.605469 332.378906 197.925781 332.800781 198.269531 C 333.21875 198.613281 333.617188 198.976562 334 199.359375 C 334.382812 199.742188 334.746094 200.144531 335.089844 200.5625 C 335.433594 200.980469 335.753906 201.414062 336.054688 201.867188 C 336.355469 202.316406 336.632812 202.78125 336.890625 203.257812 C 337.144531 203.734375 337.375 204.222656 337.582031 204.726562 C 337.789062 205.226562 337.972656 205.734375 338.128906 206.253906 C 338.285156 206.769531 338.417969 207.296875 338.523438 207.828125 C 338.628906 208.359375 338.707031 208.894531 338.761719 209.433594 C 338.8125 209.972656 338.839844 210.511719 338.839844 211.054688 Z M 338.839844 211.054688 " fill-opacity="1" fill-rule="nonzero"/><path fill="#000000" d="M 371.886719 211.054688 C 371.886719 211.59375 371.859375 212.132812 371.808594 212.671875 C 371.753906 213.210938 371.675781 213.746094 371.570312 214.277344 C 371.464844 214.808594 371.332031 215.335938 371.175781 215.851562 C 371.019531 216.371094 370.835938 216.878906 370.628906 217.378906 C 370.421875 217.882812 370.191406 218.371094 369.9375 218.847656 C 369.679688 219.324219 369.402344 219.789062 369.101562 220.238281 C 368.800781 220.691406 368.480469 221.125 368.136719 221.542969 C 367.792969 221.960938 367.429688 222.363281 367.046875 222.746094 C 366.664062 223.128906 366.265625 223.492188 365.847656 223.835938 C 365.425781 224.179688 364.992188 224.5 364.542969 224.800781 C 364.09375 225.101562 363.628906 225.382812 363.152344 225.636719 C 362.675781 225.890625 362.1875 226.121094 361.6875 226.328125 C 361.1875 226.539062 360.675781 226.71875 360.160156 226.875 C 359.640625 227.035156 359.117188 227.164062 358.585938 227.269531 C 358.054688 227.375 357.523438 227.457031 356.984375 227.507812 C 356.445312 227.5625 355.90625 227.589844 355.363281 227.589844 C 354.820312 227.589844 354.28125 227.5625 353.742188 227.507812 C 353.207031 227.457031 352.671875 227.375 352.140625 227.269531 C 351.609375 227.164062 351.085938 227.035156 350.566406 226.875 C 350.050781 226.71875 349.539062 226.539062 349.039062 226.328125 C 348.539062 226.121094 348.050781 225.890625 347.574219 225.636719 C 347.097656 225.382812 346.632812 225.101562 346.183594 224.800781 C 345.734375 224.5 345.300781 224.179688 344.882812 223.835938 C 344.460938 223.492188 344.0625 223.128906 343.679688 222.746094 C 343.296875 222.363281 342.933594 221.960938 342.589844 221.542969 C 342.246094 221.125 341.925781 220.691406 341.625 220.238281 C 341.324219 219.789062 341.046875 219.324219 340.789062 218.847656 C 340.535156 218.371094 340.304688 217.882812 340.097656 217.378906 C 339.890625 216.878906 339.707031 216.371094 339.550781 215.851562 C 339.394531 215.335938 339.261719 214.808594 339.15625 214.277344 C 339.050781 213.746094 338.972656 213.210938 338.917969 212.671875 C 338.867188 212.132812 338.839844 211.59375 338.839844 211.054688 C 338.839844 210.511719 338.867188 209.972656 338.917969 209.433594 C 338.972656 208.894531 339.050781 208.359375 339.15625 207.828125 C 339.261719 207.296875 339.394531 206.769531 339.550781 206.253906 C 339.707031 205.734375 339.890625 205.226562 340.097656 204.726562 C 340.304688 204.222656 340.535156 203.734375 340.792969 203.257812 C 341.046875 202.78125 341.324219 202.316406 341.625 201.867188 C 341.925781 201.414062 342.246094 200.980469 342.589844 200.5625 C 342.933594 200.144531 343.296875 199.742188 343.679688 199.359375 C 344.0625 198.976562 344.460938 198.613281 344.882812 198.269531 C 345.300781 197.925781 345.734375 197.605469 346.183594 197.304688 C 346.632812 197.003906 347.097656 196.726562 347.574219 196.46875 C 348.050781 196.214844 348.539062 195.984375 349.039062 195.777344 C 349.539062 195.570312 350.050781 195.386719 350.566406 195.230469 C 351.085938 195.070312 351.609375 194.941406 352.140625 194.835938 C 352.671875 194.730469 353.207031 194.648438 353.742188 194.597656 C 354.28125 194.542969 354.820312 194.515625 355.363281 194.515625 C 355.90625 194.515625 356.445312 194.542969 356.984375 194.597656 C 357.523438 194.648438 358.054688 194.730469 358.585938 194.835938 C 359.117188 194.941406 359.640625 195.070312 360.160156 195.230469 C 360.675781 195.386719 361.1875 195.570312 361.6875 195.777344 C 362.1875 195.984375 362.675781 196.214844 363.152344 196.46875 C 363.628906 196.726562 364.09375 197.003906 364.542969 197.304688 C 364.992188 197.605469 365.425781 197.925781 365.847656 198.269531 C 366.265625 198.613281 366.664062 198.976562 367.046875 199.359375 C 367.429688 199.742188 367.792969 200.144531 368.136719 200.5625 C 368.480469 200.980469 368.800781 201.414062 369.101562 201.867188 C 369.402344 202.316406 369.679688 202.78125 369.9375 203.257812 C 370.191406 203.734375 370.421875 204.222656 370.628906 204.726562 C 370.835938 205.226562 371.019531 205.734375 371.175781 206.253906 C 371.332031 206.769531 371.464844 207.296875 371.570312 207.828125 C 371.675781 208.359375 371.753906 208.894531 371.808594 209.433594 C 371.859375 209.972656 371.886719 210.511719 371.886719 211.054688 Z M 371.886719 211.054688 " fill-opacity="1" fill-rule="nonzero"/><path fill="#000000" d="M 404.933594 211.054688 C 404.933594 211.59375 404.90625 212.132812 404.855469 212.671875 C 404.800781 213.210938 404.722656 213.746094 404.617188 214.277344 C 404.511719 214.808594 404.378906 215.335938 404.222656 215.851562 C 404.066406 216.371094 403.882812 216.878906 403.675781 217.378906 C 403.46875 217.882812 403.238281 218.371094 402.984375 218.847656 C 402.726562 219.324219 402.449219 219.789062 402.148438 220.238281 C 401.847656 220.691406 401.527344 221.125 401.183594 221.542969 C 400.839844 221.960938 400.476562 222.363281 400.09375 222.746094 C 399.710938 223.128906 399.3125 223.492188 398.894531 223.835938 C 398.472656 224.179688 398.039062 224.5 397.589844 224.800781 C 397.140625 225.101562 396.675781 225.382812 396.199219 225.636719 C 395.722656 225.890625 395.234375 226.121094 394.734375 226.328125 C 394.234375 226.539062 393.726562 226.71875 393.207031 226.875 C 392.6875 227.035156 392.164062 227.164062 391.632812 227.269531 C 391.101562 227.375 390.570312 227.457031 390.03125 227.507812 C 389.492188 227.5625 388.953125 227.589844 388.410156 227.589844 C 387.867188 227.589844 387.328125 227.5625 386.789062 227.507812 C 386.253906 227.457031 385.71875 227.375 385.1875 227.269531 C 384.65625 227.164062 384.132812 227.035156 383.613281 226.875 C 383.097656 226.71875 382.585938 226.539062 382.085938 226.328125 C 381.585938 226.121094 381.097656 225.890625 380.621094 225.636719 C 380.144531 225.382812 379.679688 225.101562 379.230469 224.800781 C 378.78125 224.5 378.347656 224.179688 377.929688 223.835938 C 377.507812 223.492188 377.109375 223.128906 376.726562 222.746094 C 376.34375 222.363281 375.980469 221.960938 375.636719 221.542969 C 375.292969 221.125 374.972656 220.691406 374.671875 220.238281 C 374.371094 219.789062 374.09375 219.324219 373.839844 218.847656 C 373.582031 218.371094 373.351562 217.882812 373.144531 217.378906 C 372.9375 216.878906 372.753906 216.371094 372.597656 215.851562 C 372.441406 215.335938 372.308594 214.808594 372.203125 214.277344 C 372.097656 213.746094 372.019531 213.210938 371.964844 212.671875 C 371.914062 212.132812 371.886719 211.59375 371.886719 211.054688 C 371.886719 210.511719 371.914062 209.972656 371.964844 209.433594 C 372.019531 208.894531 372.097656 208.359375 372.203125 207.828125 C 372.308594 207.296875 372.441406 206.769531 372.597656 206.253906 C 372.753906 205.734375 372.9375 205.226562 373.144531 204.726562 C 373.351562 204.222656 373.582031 203.734375 373.839844 203.257812 C 374.09375 202.78125 374.371094 202.316406 374.671875 201.867188 C 374.972656 201.414062 375.292969 200.980469 375.636719 200.5625 C 375.980469 200.144531 376.34375 199.742188 376.726562 199.359375 C 377.109375 198.976562 377.507812 198.613281 377.929688 198.269531 C 378.347656 197.925781 378.78125 197.605469 379.230469 197.304688 C 379.679688 197.003906 380.144531 196.726562 380.621094 196.46875 C 381.097656 196.214844 381.585938 195.984375 382.085938 195.777344 C 382.585938 195.570312 383.097656 195.386719 383.613281 195.230469 C 384.132812 195.070312 384.65625 194.941406 385.1875 194.835938 C 385.71875 194.730469 386.253906 194.648438 386.789062 194.597656 C 387.328125 194.542969 387.867188 194.515625 388.410156 194.515625 C 388.953125 194.515625 389.492188 194.542969 390.03125 194.597656 C 390.570312 194.648438 391.101562 194.730469 391.632812 194.835938 C 392.164062 194.941406 392.6875 195.070312 393.207031 195.230469 C 393.726562 195.386719 394.234375 195.570312 394.734375 195.777344 C 395.234375 195.984375 395.722656 196.214844 396.199219 196.46875 C 396.675781 196.726562 397.140625 197.003906 397.589844 197.304688 C 398.039062 197.605469 398.472656 197.925781 398.894531 198.269531 C 399.3125 198.613281 399.710938 198.976562 400.09375 199.359375 C 400.476562 199.742188 400.839844 200.144531 401.183594 200.5625 C 401.527344 200.980469 401.847656 201.414062 402.148438 201.867188 C 402.449219 202.316406 402.726562 202.78125 402.984375 203.257812 C 403.238281 203.734375 403.46875 204.222656 403.675781 204.726562 C 403.882812 205.226562 404.066406 205.734375 404.222656 206.253906 C 404.378906 206.769531 404.511719 207.296875 404.617188 207.828125 C 404.722656 208.359375 404.800781 208.894531 404.855469 209.433594 C 404.90625 209.972656 404.933594 210.511719 404.933594 211.054688 Z M 404.933594 211.054688 " fill-opacity="1" fill-rule="nonzero"/></svg>